<svg width="50px" height="50px" id="dribbble-icon" viewBox="0 0 50 50" version="1.1" xmlns="http://www.w3.org/2000/svg" xmlns:xlink="http://www.w3.org/1999/xlink">
    <title>Dribbble icon</title>
    <desc>Created with Sketch.</desc>
    <defs></defs>
    <g id="mobile" stroke="none" stroke-width="1" fill="none" fill-rule="evenodd">
        <g id="iPhone-6" transform="translate(-49.000000, -2490.000000)" fill="#FFFFFF">
            <g id="social" transform="translate(32.000000, 2474.000000)">
                <g id="dribbble">
                    <path d="M62.1522222,40.5605556 C62.0827778,40.5483333 62.0105556,40.5372222 61.9355556,40.5244444 C61.6733333,40.48 61.3794444,40.4333333 61.0538889,40.3844444 C60.9483333,40.3683333 60.8538889,40.3544444 60.7416667,40.3377778 C60.3066667,40.2755556 59.8372222,40.2127778 59.3177778,40.1516667 C59.2861111,40.1483333 59.2516667,40.145 59.22,40.1416667 C58.7361111,40.0861111 58.215,40.0355556 57.6716667,39.9888889 C57.5394444,39.9772222 57.4088889,39.9672222 57.2738889,39.9566667 C56.7155556,39.9127778 56.1366667,39.8755556 55.5316667,39.8483333 C55.4816667,39.8461111 55.4355556,39.8427778 55.3855556,39.8405556 C54.7161111,39.8127778 54.0227778,39.8 53.3116667,39.8011111 C53.2061111,39.8011111 53.1,39.8038889 52.9938889,39.805 C52.3738889,39.81 51.7444444,39.83 51.105,39.8638889 C50.9783333,39.8711111 50.8544444,39.8761111 50.7272222,39.8838889 C49.9766667,39.9311111 49.2205556,39.9961111 48.4605556,40.0916667 C48.3083333,39.72 48.1744444,39.3583333 48.0144444,38.9822222 C47.5655556,37.9288889 47.08,36.8844444 46.5766667,35.8555556 C47.4316667,35.505 48.2205556,35.145 48.9738889,34.7705556 C49.0311111,34.7427778 49.0866667,34.715 49.1427778,34.6866667 C54.4838889,31.9966667 57.3061111,28.9311111 58.1644444,27.8577778 C58.5583333,28.3416667 59.0044444,28.785 59.3533333,29.3 C60.1066667,30.4211111 60.7572222,31.6144444 61.2822222,32.8544444 C61.8177778,34.1194444 62.2255556,35.4383333 62.5022222,36.7811111 C62.7611111,38.0644444 62.8922222,39.3822222 62.9111111,40.6994444 C62.7177778,40.6616667 62.4627778,40.615 62.1522222,40.5605556 M62.5022222,45.2155556 C62.2255556,46.5622222 61.8177778,47.8816667 61.2822222,49.1455556 C60.7572222,50.3855556 60.1066667,51.5794444 59.3533333,52.7005556 C58.6038889,53.8072222 57.7461111,54.8472222 56.7983333,55.7944444 C55.8944444,56.7005556 54.8983333,57.5188889 53.8472222,58.2433333 C53.5,56.3094444 52.315,50.4838889 49.7677778,43.4722222 C53.5288889,42.8694444 57.0133333,43.1516667 59.4761111,43.5566667 C59.4805556,43.5577778 59.485,43.5583333 59.4888889,43.5588889 C60.4477778,43.7172222 61.245,43.8933333 61.8477778,44.0433333 C61.8911111,44.0544444 61.9322222,44.0644444 61.9733333,44.075 C62.2377778,44.1422222 62.4738889,44.2061111 62.6472222,44.2561111 C62.5977778,44.5755556 62.5661111,44.8994444 62.5022222,45.2155556 M50.1455556,60.2822222 C48.8855556,60.8155556 47.5622222,61.2255556 46.215,61.5022222 C44.84,61.7811111 43.4216667,61.9266667 42,61.9266667 C40.5783333,61.9266667 39.1605556,61.7811111 37.7811111,61.5022222 C36.4377778,61.2255556 35.1188889,60.8155556 33.8544444,60.2822222 C32.6144444,59.7572222 31.4205556,59.1066667 30.3,58.3533333 C29.8794444,58.0688889 29.4783333,57.7538889 29.0788889,57.4383333 C29.1838889,57.2438889 29.3511111,56.9583333 29.5461111,56.6422222 C29.5788889,56.5888889 29.6072222,56.5405556 29.6427778,56.4844444 C29.8511111,56.155 30.1161111,55.7661111 30.4194444,55.3461111 C30.4777778,55.2661111 30.5383333,55.1838889 30.6,55.1011111 C30.9283333,54.6594444 31.3061111,54.1816667 31.7422222,53.6744444 C31.8066667,53.6 31.8794444,53.5216667 31.9461111,53.4455556 C32.4244444,52.9022222 32.9505556,52.3361111 33.56,51.7505556 C33.56,51.75 33.5605556,51.75 33.5605556,51.75 C34.1561111,51.1772222 34.8383333,50.59 35.5677778,50.0033333 C35.6783333,49.9144444 35.7827778,49.8255556 35.8966667,49.7366667 C36.6166667,49.1744444 37.4122222,48.6161111 38.2638889,48.0683333 C38.4244444,47.965 38.5883333,47.8622222 38.7538889,47.7605556 C39.6377778,47.2144444 40.5855556,46.6833333 41.6127778,46.1794444 C41.7666667,46.1044444 41.9316667,46.0333333 42.0888889,45.9588889 C43.1944444,45.4377778 44.3605556,44.9383333 45.6355556,44.4944444 C45.6811111,44.4788889 45.7261111,44.4683333 45.7716667,44.4527778 C48.5744444,51.7377778 49.8483333,57.9194444 50.2611111,60.2266667 C50.2216667,60.2438889 50.185,60.2661111 50.1455556,60.2822222 M28.0666667,52.4244444 C27.6983333,52.9016667 27.3777778,53.3355556 27.115,53.7133333 C27.0666667,53.7816667 27.0355556,53.8283333 26.9911111,53.8933333 C26.7405556,54.2577778 26.5283333,54.5794444 26.3866667,54.8044444 C25.7827778,54.1222222 25.1588889,53.4533333 24.6466667,52.7005556 C23.8933333,51.5794444 23.2433333,50.3855556 22.7177778,49.1455556 C22.1827778,47.8816667 21.7727778,46.5622222 21.4977778,45.2155556 C21.2194444,43.84 21.0738889,42.4222222 21.0738889,41.0005556 C21.0738889,40.7755556 21.1005556,40.5522222 21.1077778,40.3283333 C21.3705556,40.33 21.7572222,40.3283333 22.2361111,40.3216667 L22.2372222,40.3216667 C25.6027778,40.2716667 33.9405556,39.8583333 42.5783333,37.275 C43.195,38.4822222 43.7627778,39.7083333 44.3038889,40.9311111 C44.0294444,41.0088889 43.7511111,41.0761111 43.4805556,41.1638889 C42.3205556,41.5388889 41.2338889,41.9955556 40.1888889,42.4877778 C40.04,42.5583333 39.8872222,42.6222222 39.74,42.6944444 C38.7638889,43.175 37.8461111,43.6988889 36.9738889,44.2505556 C36.81,44.3544444 36.65,44.4566667 36.4894444,44.5622222 C35.6422222,45.1205556 34.8411111,45.6972222 34.0972222,46.29 C33.9783333,46.3844444 33.8705556,46.4777778 33.7544444,46.5727778 C32.9966667,47.1938889 32.2777778,47.8211111 31.6322222,48.4427778 L31.6316667,48.4438889 C30.9711111,49.08 30.3855556,49.7011111 29.8427778,50.3027778 C29.7661111,50.3883333 29.6872222,50.4716667 29.6127778,50.5561111 C29.1133333,51.12 28.675,51.6505556 28.2822222,52.1488889 C28.2061111,52.245 28.1383333,52.3316667 28.0666667,52.4244444 M22.7177778,32.8544444 C23.2433333,31.6144444 23.8933333,30.4211111 24.6466667,29.3 C25.4,28.1894444 26.2544444,27.1488889 27.2055556,26.2016667 C28.1527778,25.2544444 29.1927778,24.3961111 30.3,23.6466667 C31.2033333,23.0372222 32.1688889,22.5166667 33.1583333,22.0538889 C34.1188889,23.375 37.5538889,28.1938889 40.815,33.99 C40.1544444,34.165 39.4988889,34.3283333 38.8511111,34.4811111 L38.8511111,34.4811111 C38.8494444,34.4811111 38.8477778,34.4816667 38.8461111,34.4822222 C33.6138889,35.7144444 28.8777778,36.2327778 25.6155556,36.4488889 C25.6127778,36.4494444 25.6094444,36.4494444 25.6066667,36.4494444 C24.3094444,36.535 23.2472222,36.5727778 22.4788889,36.5888889 C22.47,36.5888889 22.4611111,36.5894444 22.4522222,36.5894444 C22.0761111,36.5972222 21.7683333,36.6 21.5444444,36.6 C21.8183333,35.32 22.2072222,34.0616667 22.7177778,32.8544444 M37.7811111,20.4977778 C39.1605556,20.2155556 40.5783333,20.0738889 42,20.0738889 C43.4216667,20.0738889 44.84,20.2155556 46.215,20.4977778 C47.5622222,20.775 48.8811111,21.1827778 50.1455556,21.7177778 C51.3855556,22.2433333 52.5833333,22.8933333 53.7,23.6466667 C54.4494444,24.1544444 55.1166667,24.7755556 55.7977778,25.3766667 C55.0044444,26.3877778 52.4416667,29.2694444 47.3166667,31.6705556 C47.3027778,31.6772222 47.2883333,31.6838889 47.2738889,31.6905556 C46.545,32.0305556 45.7655556,32.3616667 44.9305556,32.6755556 C41.7372222,26.8144444 38.2788889,22.0172222 37.2538889,20.6338889 C37.4305556,20.5927778 37.6033333,20.535 37.7811111,20.4977778 M65.035,31.2672222 C64.4066667,29.7866667 63.6311111,28.3566667 62.7305556,27.0177778 C61.8338889,25.6972222 60.8055556,24.4527778 59.6788889,23.3216667 C58.5477778,22.1927778 57.3033333,21.1666667 55.9827778,20.27 C54.6433333,19.3672222 53.2133333,18.5933333 51.7333333,17.9655556 C50.22,17.3272222 48.6427778,16.8383333 47.035,16.5072222 C45.3872222,16.17 43.695,16 42,16 C40.3055556,16 38.6127778,16.17 36.965,16.5072222 C35.3572222,16.8383333 33.7777778,17.3272222 32.2672222,17.9655556 C30.7866667,18.5933333 29.3566667,19.3672222 28.0177778,20.27 C26.6966667,21.1666667 25.4527778,22.1927778 24.3216667,23.3216667 C23.1944444,24.4527778 22.1666667,25.6972222 21.27,27.0177778 C20.3688889,28.3566667 19.5933333,29.7866667 18.965,31.2672222 C18.3272222,32.7777778 17.8383333,34.3572222 17.5088889,35.965 C17.17,37.6133333 17,39.3055556 17,41.0005556 C17,42.6944444 17.17,44.3872222 17.5088889,46.0355556 C17.8383333,47.6433333 18.3272222,49.2227778 18.965,50.7294444 C19.5933333,52.2138889 20.3688889,53.6433333 21.27,54.9827778 C22.1666667,56.3033333 23.1944444,57.5477778 24.3216667,58.6788889 C25.4527778,59.8055556 26.6966667,60.8338889 28.0177778,61.7266667 C29.3566667,62.6316667 30.7866667,63.4072222 32.2672222,64.035 C33.7777778,64.6733333 35.3572222,65.1622222 36.965,65.4911111 C38.6127778,65.8305556 40.3055556,66 42,66 C43.695,66 45.3872222,65.8305556 47.035,65.4911111 C48.6427778,65.1622222 50.22,64.6733333 51.7333333,64.035 C53.2133333,63.4072222 54.6433333,62.6316667 55.9827778,61.7266667 C57.3033333,60.8338889 58.5477778,59.8055556 59.6788889,58.6788889 C60.8055556,57.5477778 61.8338889,56.3033333 62.7305556,54.9827778 C63.6311111,53.6433333 64.4066667,52.2138889 65.035,50.7294444 C65.6711111,49.2227778 66.1616667,47.6433333 66.4911111,46.0355556 C66.8305556,44.3872222 67,42.6944444 67,41.0005556 C67,39.3055556 66.8305556,37.6133333 66.4911111,35.965 C66.1616667,34.3572222 65.6711111,32.7777778 65.035,31.2672222" id="Fill-30"></path>
                </g>
            </g>
        </g>
    </g>
</svg>
