<svg width="50px" height="41px" viewBox="0 0 50 41" version="1.1" xmlns="http://www.w3.org/2000/svg" xmlns:xlink="http://www.w3.org/1999/xlink">
    <!-- Generator: Sketch 3.6.1 (26313) - http://www.bohemiancoding.com/sketch -->
    <title>Email icon</title>
    <desc>Created with Sketch.</desc>
    <defs></defs>
    <g id="mobile" stroke="none" stroke-width="1" fill="none" fill-rule="evenodd">
        <g id="iPhone-6" transform="translate(-542.000000, -1078.000000)" fill="#FFFFFF">
            <g id="social" transform="translate(141.000000, 1056.000000)">
                <g id="linkedin" transform="translate(384.000000, 0.000000)">
                    <path d="M65.3263053,22 L18.6732122,22 C18.213899,22 17.8202021,22.1492701 17.4921212,22.4478102 C17.1640404,22.7463503 17,23.1609894 17,23.6917274 L17,28.9659365 C17,29.2313055 17.0984242,29.3639901 17.2952727,29.3639901 L41.8029103,43.4948899 L42.0002412,43.5944033 C42.1309911,43.5944033 42.2298978,43.5612321 42.295514,43.4948899 L66.0157575,29.3639901 C66.1465074,29.2976478 66.2454141,29.2644767 66.3110303,29.2644767 C66.376164,29.2644767 66.4750707,29.2313055 66.606303,29.1649633 C66.8687677,29.1649633 67,29.0322788 67,28.7669098 L67,23.6917274 C67,23.1609894 66.8357988,22.7463503 66.5073963,22.4478102 C66.1789938,22.1492701 65.7856185,22 65.3263053,22 L65.3263053,22 Z M31.8620613,43.1963497 C31.9276775,43.1300075 31.9604856,43.0303315 31.9604856,42.8978096 C31.9604856,42.698295 31.8948694,42.5992695 31.7636371,42.5992695 L17.6889697,34.4390098 C17.4921212,34.3726675 17.3280808,34.3726675 17.1968485,34.4390098 C17.0656162,34.4390098 17,34.5385232 17,34.7375499 L17,56.1329264 C17,56.332441 17.0984242,56.4646377 17.2952727,56.5309799 L17.4921212,56.5309799 C17.6233536,56.5309799 17.6889697,56.4978088 17.6889697,56.4314666 L31.8620613,43.1963497 L31.8620613,43.1963497 Z M48.9878803,44.7885638 C48.9222641,44.5890492 48.7577413,44.5563659 48.4952766,44.6890504 L43.081943,47.8734786 C42.4257814,48.2715321 41.7372941,48.2715321 41.0150338,47.8734786 L36.29067,45.1871051 C36.0938215,45.0544206 35.9297811,45.0544206 35.7985487,45.1871051 L17.7869115,62.1043796 C17.7212953,62.170234 17.6884873,62.3034063 17.6884873,62.5019453 C17.6884873,62.5682875 17.7541034,62.6679635 17.8853358,62.8004854 C18.2790327,62.9331699 18.5414974,63 18.6727297,63 L64.8338624,63 C64.9650948,63 65.0968096,62.9336577 65.2275594,62.8004854 C65.2275594,62.5351164 65.1947514,62.3697486 65.1291352,62.3029185 L48.9878803,44.7885638 L48.9878803,44.7885638 Z M66.7042448,34.0411189 L66.3110303,34.0411189 L52.9253327,42.1017026 C52.7945828,42.1017026 52.7284842,42.201216 52.7284842,42.4002427 C52.662868,42.466585 52.6956761,42.5660983 52.8264259,42.698295 L66.2121236,57.3272496 C66.3433559,57.4599341 66.4417801,57.5267641 66.5073963,57.5267641 L66.7042448,57.5267641 C66.9015758,57.3272496 67,57.1950529 67,57.1287106 L67,34.439335 C66.9995175,34.3064879 66.9010933,34.1738034 66.7042448,34.0411189 L66.7042448,34.0411189 Z" id="Shape"></path>
                </g>
            </g>
        </g>
    </g>
</svg>
