<svg width="50px" id="github-icon" height="44px" viewBox="0 0 50 44" version="1.1" xmlns="http://www.w3.org/2000/svg" xmlns:xlink="http://www.w3.org/1999/xlink">
    <!-- Generator: Sketch 3.6.1 (26313) - http://www.bohemiancoding.com/sketch -->
    <title>Github icon</title>
    <desc>Created with Sketch.</desc>
    <defs></defs>
    <g id="mobile" stroke="none" stroke-width="1" fill="none" fill-rule="evenodd">
        <g id="iPhone-6" transform="translate(-200.000000, -2494.000000)" fill="#FFFFFF">
            <g id="social" transform="translate(32.000000, 2474.000000)">
                <g id="github" transform="translate(150.000000, 0.000000)">
                    <g id="Group-24" transform="translate(18.000000, 20.000000)">
                        <path d="M26.0127381,34.3504566 C25.4155159,34.9422289 24.9377381,35.2312083 24.5532937,35.2312083 C24.1688492,35.2312083 23.6910714,34.9422289 23.0938492,34.3504566 C22.7121825,33.9692027 22.096627,33.9692027 21.7160714,34.3504566 C21.3327381,34.7300528 21.3327381,35.345032 21.7160714,35.7224181 C22.6821825,36.6877088 23.6171825,37.1678677 24.5532937,37.1678677 C25.4894048,37.1678677 26.4232937,36.6877088 27.3905159,35.7240757 C27.7732937,35.345032 27.7732937,34.7300528 27.3905159,34.3504566 C27.0094048,33.9708603 26.3932937,33.9708603 26.0127381,34.3504566" id="Fill-93"></path>
                        <path d="M42.7855556,32.3602273 C42.4388889,33.6509652 42.0016667,34.7361575 41.4716667,35.6097262 C40.9422222,36.4844001 40.2016667,37.222596 39.2455556,37.8259718 C38.2905556,38.4282425 37.3655556,38.8929302 36.4716667,39.2244553 C35.5783333,39.5554279 34.4233333,39.8118074 33.0077778,39.9963564 C31.5933333,40.1798003 30.325,40.2936239 29.2044444,40.3323018 C28.0861111,40.3709798 26.675,40.3897662 24.9733333,40.3897662 C23.2733333,40.3897662 21.8655556,40.3709798 20.755,40.3323018 C19.6433333,40.2936239 18.3816667,40.1798003 16.9655556,39.9963564 C15.5516667,39.8118074 14.3966667,39.5554279 13.5033333,39.2244553 C12.6072222,38.8929302 11.6861111,38.4282425 10.73,37.8259718 C9.775,37.222596 9.03222222,36.4844001 8.50166667,35.6097262 C7.975,34.7361575 7.53388889,33.6509652 7.18777778,32.3602273 C6.84055556,31.0672793 6.66722222,29.5953077 6.66722222,27.9432074 C6.66722222,25.1257963 7.70944444,22.5697374 9.79222222,20.2777937 C10.4172222,19.5782756 11.1422222,19.0483879 11.9661111,18.6892357 C12.7905556,18.3284258 13.7283333,18.1250904 14.7794444,18.0775718 C15.8294444,18.0289481 16.8311111,18.0377888 17.7855556,18.1046464 C18.7405556,18.1731616 19.9216667,18.2659886 21.3277778,18.3831275 C22.7355556,18.4991613 23.95,18.5566256 24.9733333,18.5566256 C25.9988889,18.5566256 27.2138889,18.4991613 28.6183333,18.3831275 C30.0261111,18.2659886 31.2077778,18.1731616 32.1622222,18.1046464 C33.1166667,18.0377888 34.1183333,18.0289481 35.1683333,18.0775718 C36.2205556,18.1250904 37.1611111,18.3284258 37.9933333,18.6892357 C38.8283333,19.0483879 39.5561111,19.5782756 40.1822222,20.2777937 C42.2666667,22.5697374 43.3072222,25.1257963 43.3072222,27.9432074 C43.3072222,29.5953077 43.1327778,31.0672793 42.7855556,32.3602273 M46.3411111,9.75629083 C46.4533333,9.21645739 46.5622222,8.45284449 46.6672222,7.46931991 C46.7722222,6.48469025 46.7316667,5.34645394 46.5483333,4.05626861 C46.3666667,2.76663582 46.0233333,1.45048102 45.52,0.107251662 L45.1294444,0.029895796 C44.87,-0.0231482262 44.4433333,-0.00546688547 43.8527778,0.0818347344 C43.2638889,0.168031271 42.5738889,0.325505712 41.7844444,0.55204789 C40.9933333,0.77914261 39.975,1.22835917 38.7238889,1.89969758 C37.4733333,2.56882582 36.155,3.41974034 34.7655556,4.44802081 C32.4027778,3.7330316 29.1494444,2.98544241 25,2.98544241 C20.8511111,2.98544241 17.5872222,3.7330316 15.2077778,4.44802081 C13.82,3.41974034 12.4966667,2.57324615 11.2355556,1.9118535 C9.97944444,1.25046085 8.97222222,0.796271409 8.215,0.55204789 C7.46055556,0.308376913 6.76277778,0.151455014 6.11833333,0.0818347344 C5.47833333,0.0116619134 5.06555556,-0.00988722066 4.88277778,0.0166347905 C4.69944444,0.0420517178 4.56555556,0.0718889803 4.48,0.107251662 C3.97666667,1.45048102 3.62777778,2.76663582 3.43777778,4.05626861 C3.24722222,5.34645394 3.20277778,6.47916483 3.30833333,7.45550637 C3.41277778,8.43129536 3.525,9.19877605 3.64666667,9.75629083 C3.76722222,10.3149107 3.90611111,10.7928594 4.06277778,11.1940048 C1.355,14.3147615 0,18.0538125 0,22.4106054 C0,24.8335016 0.207777778,27.0309607 0.625,29.0002201 C1.04055556,30.971137 1.62666667,32.6784915 2.38277778,34.1250462 C3.13722222,35.5721534 4.09222222,36.840237 5.24666667,37.9298497 C6.40333333,39.0189098 7.65611111,39.9173429 9.01111111,40.624044 C10.3638889,41.3301925 11.9138889,41.8998632 13.6594444,42.3369239 C15.4033333,42.7717743 17.1783333,43.0767775 18.9838889,43.2519332 C20.7911111,43.4259839 22.7783333,43.5132856 24.9483333,43.5132856 C27.1172222,43.5132856 29.1105556,43.4259839 30.9233333,43.2519332 C32.7388889,43.0767775 34.5183333,42.7717743 36.2622222,42.3369239 C38.0066667,41.8998632 39.5605556,41.3301925 40.9233333,40.624044 C42.2872222,39.9173429 43.55,39.0189098 44.7144444,37.9315073 C45.8761111,36.8418947 46.8361111,35.5721534 47.5905556,34.1250462 C48.345,32.6784915 48.9355556,30.971137 49.3622222,29.0018777 C49.7855556,27.0309607 50,24.8335016 50,22.4106054 C50,18.0703888 48.645,14.3318903 45.9372222,11.1940048 C46.0933333,10.7762832 46.2277778,10.2961243 46.3411111,9.75629083" id="Fill-94"></path>
                        <path d="M14.5535714,22.7096774 C12.8285714,22.7096774 11.4285714,24.7971807 11.4285714,27.372026 C11.4285714,29.9468712 12.8285714,32.033822 14.5535714,32.033822 C16.2785714,32.033822 17.6785714,29.9468712 17.6785714,27.372026 C17.6785714,24.7971807 16.2785714,22.7096774 14.5535714,22.7096774" id="Fill-95"></path>
                        <path d="M33.125,22.7096774 C31.4,22.7096774 30,24.7971807 30,27.372026 C30,29.9468712 31.4,32.033822 33.125,32.033822 C34.85,32.033822 36.25,29.9468712 36.25,27.372026 C36.25,24.7971807 34.85,22.7096774 33.125,22.7096774" id="Fill-96"></path>
                    </g>
                </g>
            </g>
        </g>
    </g>
</svg>
