<svg width="50px" height="33px" viewBox="0 0 50 33" version="1.1" xmlns="http://www.w3.org/2000/svg" xmlns:xlink="http://www.w3.org/1999/xlink">
    <!-- Generator: Sketch 3.6.1 (26313) - http://www.bohemiancoding.com/sketch -->
    <title>Google+ icon</title>
    <desc>Created with Sketch.</desc>
    <defs></defs>
    <g id="mobile" stroke="none" stroke-width="1" fill="none" fill-rule="evenodd">
        <g id="iPhone-6" transform="translate(-414.000000, -1082.000000)" fill="#FFFFFF">
            <g id="social" transform="translate(141.000000, 1056.000000)">
                <g id="instagram" transform="translate(256.000000, 0.000000)">
                    <g id="google+" transform="translate(17.000000, 26.000000)">
                        <path d="M0.0432527605,15.6746458 C0.183418438,7.17456109 7.89308474,-0.269821734 16.2792028,0.0137577581 C20.2969162,-0.174920874 24.0741873,1.59731057 27.1517381,4.08663312 C25.8387236,5.59886989 24.478618,7.05663695 23.0248838,8.41950314 C19.3257287,5.82741812 14.0636987,5.08730372 10.3645436,8.08089238 C5.0714887,11.7910106 4.83104639,20.55109 9.92133197,24.5447877 C14.8720059,29.0983443 24.2298654,26.8370085 25.5977273,19.8654453 C22.4963539,19.8182756 19.3877784,19.8654453 16.286959,19.7632444 C16.2792028,17.8882505 16.2714466,16.0132566 16.2792028,14.1382626 C21.4631168,14.1225394 26.6470309,14.1146778 31.8387011,14.1539859 C32.1495032,18.565472 31.5744362,23.2605376 28.900762,26.9083245 C24.8514697,32.6826768 16.7218604,34.3684305 10.380056,31.8948312 C4.01498298,29.4369551 -0.493033312,22.6226241 0.0432527605,15.6746458" id="Fill-186"></path>
                        <path d="M40.3530925,10.0434783 L45.0196473,10.0434783 C45.0274743,11.6029437 45.0353013,13.1696702 45.0509552,14.7291357 C46.6118778,14.744775 48.1800684,14.744775 49.740991,14.7604143 L49.740991,19.4226127 C48.1800684,19.4382521 46.6197048,19.4460717 45.0509552,19.4617111 C45.0353013,21.0289962 45.0274743,22.5884616 45.0196473,24.1473685 L40.3452655,24.1473685 C40.3296115,22.5884616 40.3296115,21.0289962 40.3139576,19.4695307 C38.7530349,19.4538914 37.1842853,19.4382521 35.6239218,19.4226127 L35.6239218,14.7604143 C37.1842853,14.744775 38.745208,14.7369553 40.3139576,14.7291357 C40.3217846,13.1618506 40.3374385,11.6029437 40.3530925,10.0434783" id="Fill-187"></path>
                    </g>
                </g>
            </g>
        </g>
    </g>
</svg>
