<svg width="49px" id="instagram-icon" height="49px" viewBox="0 0 49 49" version="1.1" xmlns="http://www.w3.org/2000/svg" xmlns:xlink="http://www.w3.org/1999/xlink">
    <!-- Generator: Sketch 3.6.1 (26313) - http://www.bohemiancoding.com/sketch -->
    <title>Instagram icon</title>
    <desc>Created with Sketch.</desc>
    <defs></defs>
    <g id="mobile" stroke="none" stroke-width="1" fill="none" fill-rule="evenodd">
        <g id="iPhone-6" transform="translate(-501.000000, -2491.000000)" fill="#FFFFFF">
            <g id="social" transform="translate(32.000000, 2474.000000)">
                <g id="instagram" transform="translate(450.000000, 0.000000)">
                    <g id="Group-6" transform="translate(19.000000, 17.000000)">
                        <path d="M44.4059778,9.12400507 C44.4059778,10.8039034 43.0350667,12.1653401 41.3434778,12.1653401 L38.2809778,12.1653401 C36.5899333,12.1653401 35.2184778,10.8039034 35.2184778,9.12400507 L35.2184778,7.60306721 C35.2184778,5.9237096 36.5899333,4.56227287 38.2809778,4.56227287 L41.3434778,4.56227287 C43.0350667,4.56227287 44.4059778,5.9237096 44.4059778,7.60306721 L44.4059778,9.12400507 Z M39.8119556,0 L12.2494556,0 L12.2494556,15.2066751 L16.0480444,15.2066751 C18.2737333,13.1720896 21.2360556,11.9193299 24.4994556,11.9193299 C27.7634,11.9193299 30.7257222,13.1720896 32.9519556,15.2066751 L45.9375,15.2066751 L45.9375,39.5373553 C45.9375,42.8971519 43.1951333,45.6200253 39.8119556,45.6200253 L9.18695556,45.6200253 C5.80432222,45.6200253 3.0625,42.8971519 3.0625,39.5373553 L3.0625,16.727613 L3.0625,15.2066751 L3.0625,2.33682666 C1.18688889,4.00753337 0,6.42492161 0,9.12400507 L0,39.5373553 C0,44.5765095 4.11327778,48.6613603 9.18695556,48.6613603 L39.8119556,48.6613603 C44.8861778,48.6613603 49,44.5765095 49,39.5373553 L49,15.2066751 L49,10.6449429 L49,9.12400507 C49,4.08485086 44.8861778,0 39.8119556,0 L39.8119556,0 Z" id="Fill-33"></path>
                        <path d="M8.6625,15.2066751 L8.6625,0 C7.58722222,0 6.55931111,0.193023396 5.6,0.529868146 L5.6,15.2066751 L8.6625,15.2066751 Z" id="Fill-35"></path>
                        <path d="M18.5066,25.9290863 C18.5066,22.5179249 21.2914333,19.7523376 24.7263333,19.7523376 C28.1612333,19.7523376 30.9460667,22.5179249 30.9460667,25.9290863 C30.9460667,29.3402476 28.1612333,32.1058349 24.7263333,32.1058349 C21.2914333,32.1058349 18.5066,29.3402476 18.5066,25.9290863 M34.0526667,25.9290863 C34.0526667,20.8136959 29.8773222,16.6666667 24.7263333,16.6666667 C19.5753444,16.6666667 15.4,20.8136959 15.4,25.9290863 C15.4,31.0444766 19.5753444,35.1909652 24.7263333,35.1909652 C29.8773222,35.1909652 34.0526667,31.0444766 34.0526667,25.9290863" id="Fill-37"></path>
                    </g>
                </g>
            </g>
        </g>
    </g>
</svg>
