<svg width="50px" id="linkedin-icon" height="48px" viewBox="0 0 50 48" version="1.1" xmlns="http://www.w3.org/2000/svg" xmlns:xlink="http://www.w3.org/1999/xlink">
    <!-- Generator: Sketch 3.6.1 (26313) - http://www.bohemiancoding.com/sketch -->
    <title>Linkedin icon</title>
    <desc>Created with Sketch.</desc>
    <defs></defs>
    <g id="mobile" stroke="none" stroke-width="1" fill="none" fill-rule="evenodd">
        <g id="iPhone-6" transform="translate(-651.000000, -2492.000000)" fill="#FFFFFF">
            <g id="social" transform="translate(32.000000, 2474.000000)">
                <g id="linkedin" transform="translate(602.000000, 0.000000)">
                    <g id="Linkedin" transform="translate(17.000000, 18.000000)">
                        <path d="M6.0628858,11.2473006 C9.40949074,11.2473006 12.1225309,8.73238989 12.1225309,5.62667302 C12.1225309,2.51820822 9.40949074,0 6.0628858,0 C2.71304012,0 0,2.51820822 0,5.62667302 C0,8.73238989 2.71304012,11.2473006 6.0628858,11.2473006" id="Fill-182"></path>
                        <path d="M1.38888889,47.4038165 L12.2615741,47.4038165 L12.2615741,15.5294118 L1.38888889,15.5294118 L1.38888889,47.4038165 Z" id="Fill-183"></path>
                        <path d="M27.5215278,29.6759091 C27.5215278,26.0206051 29.2229167,22.4460904 33.2911265,22.4460904 C37.3593364,22.4460904 38.3596451,26.0206051 38.3596451,29.5885247 L38.3596451,46.996697 L49.1837191,46.996697 L49.1837191,28.8768094 C49.1837191,16.2879666 41.8628858,14.1176471 37.3593364,14.1176471 C32.8595679,14.1176471 30.3777006,15.6647348 27.5215278,19.4134686 L27.5215278,15.1222923 L16.6666667,15.1222923 L16.6666667,46.996697 L27.5215278,46.996697 L27.5215278,29.6759091 Z" id="Fill-184"></path>
                    </g>
                </g>
            </g>
        </g>
    </g>
</svg>
