<svg width="84px" height="84px" viewBox="0 0 84 84" version="1.1" xmlns="http://www.w3.org/2000/svg" xmlns:xlink="http://www.w3.org/1999/xlink">
    <!-- Generator: Sketch 3.6.1 (26313) - http://www.bohemiancoding.com/sketch -->
    <title>Logo for designer Philip John Madeley</title>
    <desc>Created with Sketch</desc>
    <defs>
        <rect id="path-1" x="0" y="0" width="34.125" height="26.25"></rect>
    </defs>
    <g id="mobile" stroke="none" stroke-width="1" fill="none" fill-rule="evenodd">
        <g id="iPhone-6" transform="translate(-32.000000, -86.000000)">
            <g id="logo" transform="translate(32.000000, 86.000000)">
                <g id="icon">
                    <g id="flag_bg">
                        <rect id="border" fill="#002366" x="0" y="0" width="84" height="84"></rect>
                        <path d="M21,15.75 L63,15.75 L63,47.25 L21,47.25 L21,15.75 Z M21,47.25 L26.25,47.25 L26.25,68.25 L21,68.25 L21,47.25 Z" id="Combined-Shape" fill="#FFFFFF"></path>
                    </g>
                    <g id="flag_content" transform="translate(26.250000, 18.375000)">
                        <mask id="mask-2" fill="white">
                            <use xlink:href="#path-1"></use>
                        </mask>
                        <use id="Mask" xlink:href="#path-1"></use>
                        <g id="Group-6" mask="url(#mask-2)" stroke-linecap="square" stroke="#002366" stroke-width="2.625">
                            <g transform="translate(-9.187500, -7.875000)" id="Line">
                                <path d="M5.25,39.375 L47.25,2.625"></path>
                                <path d="M5.25,39.375 L47.25,2.625" transform="translate(26.250000, 21.000000) scale(-1, 1) translate(-26.250000, -21.000000) "></path>
                                <path d="M26.25,2.625 L26.25,39.375"></path>
                                <path d="M47.25,21 L0,21"></path>
                            </g>
                        </g>
                    </g>
                </g>
            </g>
        </g>
    </g>
</svg>
