<svg width="50px" id="twitter-icon" height="41px" viewBox="0 0 50 41" version="1.1" xmlns="http://www.w3.org/2000/svg" xmlns:xlink="http://www.w3.org/1999/xlink">
    <!-- Generator: Sketch 3.6.1 (26313) - http://www.bohemiancoding.com/sketch -->
    <title>Twitter icon</title>
    <desc>Created with Sketch.</desc>
    <defs></defs>
    <g id="mobile" stroke="none" stroke-width="1" fill="none" fill-rule="evenodd">
        <g id="iPhone-6" transform="translate(-349.000000, -2496.000000)" fill="#FFFFFF">
            <g id="social" transform="translate(32.000000, 2474.000000)">
                <g id="twitter" transform="translate(300.000000, 0.000000)">
                    <path d="M65.5766667,22.9099897 C64.1238889,23.849135 60.7883333,25.2138393 59.1433333,25.2138393 L59.1433333,25.2166427 C57.265,23.2363077 54.6205556,22 51.6877778,22 C45.9916667,22 41.3727778,26.6615248 41.3727778,32.4079726 C41.3727778,33.2063863 41.4644444,33.9851761 41.6338889,34.7320068 L41.6322222,34.7320068 C33.9055556,34.5273573 25.455,30.6188308 20.3677778,23.9293128 C17.24,29.3931761 19.9466667,35.4698667 23.4961111,37.6840068 C22.2811111,37.7765197 20.0444444,37.5427145 18.9916667,36.5060103 C18.9211111,40.1325128 20.6488889,44.9375726 26.9488889,46.6807385 C25.7355556,47.3395419 23.5877778,47.1505915 22.6538889,47.0104205 C22.9816667,50.0717538 27.2294444,54.0739145 31.8744444,54.0739145 C30.2188889,56.0065915 23.99,59.5119863 17,58.3967863 C21.7472222,61.3117812 27.28,63 33.1361111,63 C49.7777778,63 62.7016667,49.3882803 62.0061111,32.5963624 C62.0033333,32.5778598 62.0033333,32.5593573 62.0016667,32.5391726 C62.0033333,32.496 62.0061111,32.4528274 62.0061111,32.4079726 C62.0061111,32.3558291 62.0016667,32.3064889 62,32.2560274 C63.515,31.2103521 65.5477778,29.3606564 67,26.9261675 C66.1577778,27.3943385 63.6311111,28.3318017 61.28,28.5644855 C62.7888889,27.7425231 65.0244444,25.0506803 65.5766667,22.9099897" id="Fill-1"></path>
                </g>
            </g>
        </g>
    </g>
</svg>
